<?xml version="1.0" encoding="utf-8"?>
<!-- Generator: Adobe Illustrator 22.0.0, SVG Export Plug-In . SVG Version: 6.00 Build 0)  -->
<svg version="1.1" id="Ebene_1" xmlns="http://www.w3.org/2000/svg" xmlns:xlink="http://www.w3.org/1999/xlink" x="0px" y="0px"
	 viewBox="0 0 20 29.5" style="enable-background:new 0 0 20 29.5;" xml:space="preserve">
<g>
	<path d="M3,6.7C2.6,7.1,2.1,7.1,1.7,6.8S1.3,6,1.7,5.6C2.1,5,2.5,4.5,3,4c4-4.1,8.8-5.2,13.3-0.9c4.4,4.3,4.5,7.6,2,12.1
		c-1.9,3.5-3.2,3.1-5.3,6.2c-0.8,1.1-1.2,2.2-1.4,2.9l0,0c-0.3,2.5-3.4,5.7-7.4,4.9c-4.7-1-4.3-6.7-4.3-6.7c0-0.4,0.4-0.8,1-0.8
		c0.4,0,0.8,0.4,0.8,0.9C1.3,29.4,9,28.4,10,24.1l0,0c1-4.9,5-6.3,6.9-9.7c2.1-3.7,2.2-6.3-1.7-10C11.4,0.7,7.7,1.7,4.3,5.2
		C3.8,5.7,3.4,6.2,3,6.7z M3.9,18c0.3-0.4,0.8-0.4,1.1-0.2c0.4,0.3,0.4,0.9,0.2,1.2c-2,2.5-0.2,3.1,0.3,2.5c1.2-1.8,0.6-3.2,3.7-4.6
		c0.8-0.3,1.6-0.7,2.3-1.6l0,0c1-1.2,1.6-1.9,0.4-4.5c-0.8-1.7-4.3-1.6-5.7-1.5c0,0.4,0.2,2.2,0.5,2.2c2.4,0,3.9,3.5,0.5,4.6
		c-0.4,0.2-1-0.1-1-0.5c-0.2-0.4,0-0.9,0.5-1c1.4-0.4,0.6-1.3,0.1-1.3l0,0c-1,0-1.5,0.1-1.9-1.6c-2-7.2,4.8-8.1,7.9-6.9
		c1.3,0.5,2.4,1.5,3,2.7c0.4,0.8,0.5,1.7,0.3,2.5c-0.2,0.4-0.7,0.6-1.1,0.4s-0.6-0.7-0.4-1.1c0.5-1.4-3-4.7-7-2.6
		C7,6.9,6.8,7.3,6.5,7.6c2.3-0.2,5.8,0.1,6.9,2.5c1.6,3.6,0.9,4.5-0.6,6.3l0,0c-2.3,3-3.6,0.9-5.1,4.6c-0.8,1.7-1.7,3.5-4,1.9
		C1.2,21.4,3.9,18,3.9,18z"/>
</g>
</svg>
